<?xml version="1.0" encoding="iso-8859-1"?>
<!-- Generator: Adobe Illustrator 16.0.0, SVG Export Plug-In . SVG Version: 6.00 Build 0)  -->
<!DOCTYPE svg PUBLIC "-//W3C//DTD SVG 1.1//EN" "http://www.w3.org/Graphics/SVG/1.1/DTD/svg11.dtd">
<svg version="1.1" id="Capa_1" xmlns="http://www.w3.org/2000/svg" xmlns:xlink="http://www.w3.org/1999/xlink" x="0px" y="0px"
	 width="26.76px" height="26.76px" viewBox="0 0 26.76 26.76" style="enable-background:new 0 0 26.76 26.76;" xml:space="preserve"
	>
<g>
	<path d="M13.38,0.001C6.002,0.001,0,6.003,0,13.38c0,7.378,6.002,13.379,13.38,13.379c7.377,0,13.38-6.001,13.38-13.379
		C26.76,6.003,20.757,0.001,13.38,0.001z M25.389,12.027c-1.785,0.288-7.231,0.907-9.89-1.688c3.276-2.421,6.288-3.902,7.384-4.407
		C24.234,7.653,25.132,9.743,25.389,12.027z M22.229,5.17c-1.306,0.617-4.213,2.102-7.35,4.423
		c-1.915-2.913,0.938-6.654,1.924-7.802C18.909,2.415,20.771,3.601,22.229,5.17z M15.758,1.528c-1.307,1.606-3.858,5.435-1.65,8.656
		c-0.751,0.586-1.51,1.212-2.257,1.891c-0.188,0.172-0.369,0.341-0.553,0.513C8.302,8.873,6.475,5.202,5.88,3.915
		c2.063-1.638,4.666-2.625,7.5-2.625C14.193,1.291,14.988,1.374,15.758,1.528z M5.121,4.575c0.723,1.522,2.563,5.084,5.469,8.676
		c-0.705,0.67-1.371,1.325-1.993,1.955c-2.511-2.634-5.755-2.023-7.292-1.517c-0.003-0.104-0.015-0.204-0.015-0.308
		C1.29,9.908,2.77,6.782,5.121,4.575z M7.91,15.907c-2.005,2.074-3.479,3.792-4.216,4.679c-1.257-1.685-2.093-3.699-2.331-5.896
		C2.544,14.249,5.599,13.469,7.91,15.907z M4.314,21.353c0.665-0.807,2.15-2.554,4.211-4.689c1.968,2.828,1.467,6.638,1.135,8.217
		C7.569,24.202,5.734,22.966,4.314,21.353z M10.602,25.135c0.376-1.719,0.961-5.97-1.392-9.175c0.622-0.631,1.291-1.29,1.997-1.962
		c0.259,0.303,0.522,0.606,0.795,0.905c3.686,4.046,7.175,7.051,8.549,8.188c-2.009,1.487-4.484,2.378-7.171,2.378
		C12.422,25.47,11.494,25.347,10.602,25.135z M21.322,22.474c-1.227-1.009-4.814-4.059-8.604-8.222
		c-0.278-0.303-0.545-0.61-0.806-0.916c0.195-0.182,0.39-0.363,0.59-0.546c0.734-0.668,1.479-1.285,2.221-1.86
		c1.84,1.889,4.805,2.352,7.26,2.352c1.447,0,2.713-0.16,3.468-0.282c0.004,0.127,0.021,0.252,0.021,0.38
		C25.469,17.006,23.857,20.256,21.322,22.474z"/>
</g>
<g>
</g>
<g>
</g>
<g>
</g>
<g>
</g>
<g>
</g>
<g>
</g>
<g>
</g>
<g>
</g>
<g>
</g>
<g>
</g>
<g>
</g>
<g>
</g>
<g>
</g>
<g>
</g>
<g>
</g>
</svg>
